<svg xmlns="http://www.w3.org/2000/svg" viewBox="0 0 64 64"><g id="_28-willow_tree" data-name="28-willow tree"><path d="M27.5,45a2.5,2.5,0,0,1-1.5-.5v4.26a2,2,0,0,0,1.11,1.79L30,52V42.5A2.492,2.492,0,0,1,27.5,45Z" style="fill:none"/><path d="M39.41,37.41a1.813,1.813,0,0,1-.41.32V42.5A2.5,2.5,0,0,1,36.5,45a2.734,2.734,0,0,1-.5-.05V53l2.34-1.17A3,3,0,0,0,40,49.15V36A1.955,1.955,0,0,1,39.41,37.41Z" style="fill:none"/><path d="M43,39.73A2,2,0,0,1,40,38V49.15a3,3,0,0,1-1.66,2.68L36,53v5l3.98-2.27A6,6,0,0,0,43,50.52V39.73Z" style="fill:#752d25"/><path d="M27.11,50.55A2,2,0,0,1,26,48.76V44.5a2.491,2.491,0,0,1-1-2V41a2.006,2.006,0,0,1-2,2v6.04a6.033,6.033,0,0,0,3.64,5.52L30,56V52Z" style="fill:#752d25"/><path d="M36,45v-.05a2.49,2.49,0,0,1-2-2.45V41a2.006,2.006,0,0,1-2-2,2.006,2.006,0,0,1-2,2V58l-1.71,1.71a1.009,1.009,0,0,0-.29.7V62a1,1,0,0,0,1,1h8a1,1,0,0,0,1-1V60.41a1.009,1.009,0,0,0-.29-.7L36,58V45Z" style="fill:#92563a"/><path d="M9,41.73a1.813,1.813,0,0,1-.41-.32A1.955,1.955,0,0,1,8,40V36a1.955,1.955,0,0,1-.59,1.41,1.925,1.925,0,0,1-1.06.56V38A3.991,3.991,0,0,0,5,41V56a2.006,2.006,0,0,0,2,2,2.015,2.015,0,0,0,2-2V41.73Z" style="fill:#4c6d00"/><path d="M17,36.73a1.813,1.813,0,0,1-.41-.32A1.955,1.955,0,0,1,16,35v4a2,2,0,0,1-3,1.73V49a2.015,2.015,0,0,0,2,2,2.006,2.006,0,0,0,2-2V36.73Z" style="fill:#2b3d00"/><path d="M25,41V37.73a1.813,1.813,0,0,1-.41-.32A1.955,1.955,0,0,1,24,36v2a2,2,0,0,1-3,1.73V41a2.015,2.015,0,0,0,2,2A2.006,2.006,0,0,0,25,41Z" style="fill:#2b3d00"/><path d="M47,36.73A2,2,0,0,1,44,35v3a1.955,1.955,0,0,1-.59,1.41,1.813,1.813,0,0,1-.41.32V44a2.006,2.006,0,0,0,2,2,2.015,2.015,0,0,0,2-2V36.73Z" style="fill:#3c5619"/><path d="M55,41.73A2,2,0,0,1,52,40V39a1.955,1.955,0,0,1-.59,1.41,1.813,1.813,0,0,1-.41.32V53a2.006,2.006,0,0,0,2,2,2.015,2.015,0,0,0,2-2V41.73Z" style="fill:#3c5619"/><path d="M5,41a3.991,3.991,0,0,1,1.35-3v-.03A1.983,1.983,0,0,1,6,38H5a4,4,0,0,0-4,4v8a1.955,1.955,0,0,0,.59,1.41A1.955,1.955,0,0,0,3,52a2.006,2.006,0,0,0,2-2V41Z" style="fill:#6d9e00"/><path d="M13,40.73a1.813,1.813,0,0,1-.41-.32A1.955,1.955,0,0,1,12,39v1a2,2,0,0,1-3,1.73V53a2.015,2.015,0,0,0,2,2,2.006,2.006,0,0,0,2-2V40.73Z" style="fill:#324d11"/><path d="M21,39.73a1.813,1.813,0,0,1-.41-.32A1.955,1.955,0,0,1,20,38V35a2,2,0,0,1-3,1.73V44a2.015,2.015,0,0,0,2,2,2.006,2.006,0,0,0,2-2V39.73Z" style="fill:#1f2b00"/><path d="M28,39V36a2,2,0,0,1-3,1.73V42.5a2.5,2.5,0,1,0,5,0V41a2.015,2.015,0,0,1-2-2Z" style="fill:#3c5619"/><path d="M39,42.5V37.73A2,2,0,0,1,36,36v3a2.015,2.015,0,0,1-2,2v1.5a2.49,2.49,0,0,0,2,2.45,2.734,2.734,0,0,0,.5.05A2.5,2.5,0,0,0,39,42.5Z" style="fill:#2b3d00"/><path d="M51,40.73A2,2,0,0,1,48,39V35a1.955,1.955,0,0,1-.59,1.41,1.813,1.813,0,0,1-.41.32V49a2.006,2.006,0,0,0,2,2,2.015,2.015,0,0,0,2-2V40.73Z" style="fill:#2b3d00"/><path d="M59,41a4.007,4.007,0,0,0-1.35-3v-.03a1.925,1.925,0,0,1-1.06-.56A1.955,1.955,0,0,1,56,36v4a1.955,1.955,0,0,1-.59,1.41,1.813,1.813,0,0,1-.41.32V56a2.015,2.015,0,0,0,2,2,2.006,2.006,0,0,0,2-2V41Z" style="fill:#2b3d00"/><path d="M59,38H58a1.983,1.983,0,0,1-.35-.03V38A4.007,4.007,0,0,1,59,41v9a2.006,2.006,0,0,0,2,2,2.015,2.015,0,0,0,2-2V42A4,4,0,0,0,59,38Z" style="fill:#8eb33c"/><path d="M54,26a2.015,2.015,0,0,1-2-2V40a2,2,0,0,0,3,1.73,1.813,1.813,0,0,0,.41-.32A1.955,1.955,0,0,0,56,40V24A2.006,2.006,0,0,1,54,26Z" style="fill:#537500"/><path d="M48,20V18a2.006,2.006,0,0,1-2,2,2.015,2.015,0,0,1-2-2V35a2,2,0,0,0,3,1.73,1.813,1.813,0,0,0,.41-.32A1.955,1.955,0,0,0,48,35V20Z" style="fill:#537500"/><path d="M38,38a2,2,0,0,0,1-.27,1.813,1.813,0,0,0,.41-.32A1.955,1.955,0,0,0,40,36V25a2.015,2.015,0,0,1-2,2,2.006,2.006,0,0,1-2-2V36A2.006,2.006,0,0,0,38,38Z" style="fill:#4c6d00"/><path d="M32.24,22.95A2.028,2.028,0,0,1,32,22a2.015,2.015,0,0,1-2,2,2.006,2.006,0,0,1-2-2V39a2.015,2.015,0,0,0,2,2,2.006,2.006,0,0,0,2-2V23Z" style="fill:#4c6d00"/><path d="M24,24V22a2.015,2.015,0,0,1-2,2,2.006,2.006,0,0,1-2-2V38a1.955,1.955,0,0,0,.59,1.41,1.813,1.813,0,0,0,.41.32A2,2,0,0,0,24,38V24Z" style="fill:#4c6d00"/><path d="M16,20a2.015,2.015,0,0,1-2,2,2.006,2.006,0,0,1-2-2V39a1.955,1.955,0,0,0,.59,1.41,1.813,1.813,0,0,0,.41.32A2,2,0,0,0,16,39V20Z" style="fill:#4c6d00"/><path d="M8,36v4a1.955,1.955,0,0,0,.59,1.41,1.813,1.813,0,0,0,.41.32A2,2,0,0,0,12,40V24a2.015,2.015,0,0,1-2,2,2.006,2.006,0,0,1-2-2V36Z" style="fill:#6d9e00"/><path d="M7.41,37.41A1.955,1.955,0,0,0,8,36V26a4,4,0,0,0-4,4v6a2.006,2.006,0,0,0,2,2,1.983,1.983,0,0,0,.35-.03A1.925,1.925,0,0,0,7.41,37.41Z" style="fill:#8eb33c"/><path d="M20,19V18a2.015,2.015,0,0,1-2,2,2.006,2.006,0,0,1-2-2V35a1.955,1.955,0,0,0,.59,1.41,1.813,1.813,0,0,0,.41.32A2,2,0,0,0,20,35V19Z" style="fill:#6d9e00"/><path d="M28,36V25a2.006,2.006,0,0,1-2,2,2.015,2.015,0,0,1-2-2V36a1.955,1.955,0,0,0,.59,1.41,1.813,1.813,0,0,0,.41.32A2,2,0,0,0,28,36Z" style="fill:#6d9e00"/><path d="M36,39V22a2.006,2.006,0,0,1-2,2,1.955,1.955,0,0,1-1.41-.59,1.752,1.752,0,0,1-.35-.46L32,23V39a2.006,2.006,0,0,0,2,2,2.015,2.015,0,0,0,2-2Z" style="fill:#6d9e00"/><path d="M42,24a2.015,2.015,0,0,1-2-2V38a2,2,0,0,0,3,1.73,1.813,1.813,0,0,0,.41-.32A1.955,1.955,0,0,0,44,38V22A2.006,2.006,0,0,1,42,24Z" style="fill:#6d9e00"/><path d="M52,23V20a2.006,2.006,0,0,1-2,2,2.015,2.015,0,0,1-2-2V39a2,2,0,0,0,3,1.73,1.813,1.813,0,0,0,.41-.32A1.955,1.955,0,0,0,52,39V23Z" style="fill:#405c00"/><path d="M56,36a1.955,1.955,0,0,0,.59,1.41,1.925,1.925,0,0,0,1.06.56A1.983,1.983,0,0,0,58,38a2.006,2.006,0,0,0,2-2V30a4,4,0,0,0-4-4V36Z" style="fill:#acd949"/><path d="M10,26a2.015,2.015,0,0,0,2-2V12a4,4,0,0,0-4,4v8A2.006,2.006,0,0,0,10,26Z" style="fill:#6d9e00"/><path d="M16,14v4a2.006,2.006,0,0,0,2,2,2.015,2.015,0,0,0,2-2V7a3.906,3.906,0,0,1,.12-.97L20,6a4,4,0,0,0-4,4Z" style="fill:#6d9e00"/><path d="M24,7V25a2.015,2.015,0,0,0,2,2,2.006,2.006,0,0,0,2-2V5a3.989,3.989,0,0,1,.54-2H28a3.906,3.906,0,0,0-.97.12A4,4,0,0,0,24,7Z" style="fill:#6d9e00"/><path d="M32,22a2.028,2.028,0,0,0,.24.95,1.752,1.752,0,0,0,.35.46A1.955,1.955,0,0,0,34,24a2.006,2.006,0,0,0,2-2V5a4.01,4.01,0,0,0-4-4V22Z" style="fill:#6d9e00"/><path d="M40,7V22a2.015,2.015,0,0,0,2,2,2.006,2.006,0,0,0,2-2V7a3.906,3.906,0,0,0-.12-.97A4,4,0,0,0,40,3H37l-.03.12A4,4,0,0,1,40,7Z" style="fill:#6d9e00"/><path d="M48,14v6a2.015,2.015,0,0,0,2,2,2.006,2.006,0,0,0,2-2V12a4,4,0,0,0-4-4l-.48.1A4.026,4.026,0,0,1,48,10Z" style="fill:#6d9e00"/><path d="M52,20v4a2.015,2.015,0,0,0,2,2,2.006,2.006,0,0,0,2-2V16a4,4,0,0,0-4-4v8Z" style="fill:#acd949"/><path d="M44,12v6a2.015,2.015,0,0,0,2,2,2.006,2.006,0,0,0,2-2V10a4,4,0,0,0-4-4l-.12.03A3.906,3.906,0,0,1,44,7Z" style="fill:#acd949"/><path d="M36,17v8a2.006,2.006,0,0,0,2,2,2.015,2.015,0,0,0,2-2V7a4,4,0,0,0-3.03-3.88A3.906,3.906,0,0,0,36,3h-.54A3.989,3.989,0,0,1,36,5Z" style="fill:#acd949"/><path d="M28,17v5a2.006,2.006,0,0,0,2,2,2.015,2.015,0,0,0,2-2V1a4.01,4.01,0,0,0-4,4Z" style="fill:#8eb33c"/><path d="M20,12V22a2.006,2.006,0,0,0,2,2,2.015,2.015,0,0,0,2-2V7a4,4,0,0,1,3.03-3.88L27,3H24a4,4,0,0,0-3.88,3.03A3.906,3.906,0,0,0,20,7Z" style="fill:#8eb33c"/><path d="M12,20a2.006,2.006,0,0,0,2,2,2.015,2.015,0,0,0,2-2V10a3.992,3.992,0,0,1,.68-2.23L16,8a4,4,0,0,0-4,4v8Z" style="fill:#8eb33c"/><path d="M23.2,49.571,18.611,47.6a1.029,1.029,0,0,1-.6-.762c-.1-.6-.475-.8-1.013-.849V48a1.976,1.976,0,0,1-.152.758,3.03,3.03,0,0,0,.968.68l5.79,2.481A.985.985,0,0,0,24,52h.519A5.713,5.713,0,0,1,23.2,49.571Z" style="fill:#5d241d"/><path d="M47,44a1.955,1.955,0,0,1-.59,1.41,1.911,1.911,0,0,1-.41.311V46.76a.815.815,0,0,1-.008.12,1,1,0,0,1-.551.776L43,48.881V50.52c0,.162-.019.32-.032.48H43a.994.994,0,0,0,.448-.106l2.888-1.45A2.873,2.873,0,0,0,47,48.972V44Z" style="fill:#5d241d"/><path d="M43,39.73A2,2,0,0,1,40,38V49.15a3,3,0,0,1-1.66,2.68L36,53v5l3-1.711V54.606a3,3,0,0,1,1.336-2.5l.773-.515A2,2,0,0,0,42,49.93V44a1.994,1.994,0,0,1,1-1.723V39.73Z" style="fill:#5d241d"/><path d="M26,48.76V44.5a2.491,2.491,0,0,1-1-2V41a2.006,2.006,0,0,1-2,2v2a2,2,0,0,1,2,2v2.394a3,3,0,0,0,1.336,2.5l.328.218A3,3,0,0,1,28,54.606v.537L30,56V52l-2.89-1.45A2,2,0,0,1,26,48.76Z" style="fill:#5d241d"/><path d="M35,60a2,2,0,0,1-2-2V48a2,2,0,0,1,2-2h1V44.95a2.49,2.49,0,0,1-2-2.45V41a2.006,2.006,0,0,1-2-2,2.006,2.006,0,0,1-2,2V58l-1.71,1.71a1.009,1.009,0,0,0-.29.7V62a1,1,0,0,0,1,1h8a1,1,0,0,0,1-1V60.41a.991.991,0,0,0-.1-.41Z" style="fill:#593524"/></g></svg>